<svg width="18" height="18" viewBox="0 0 18 18" fill="none" xmlns="http://www.w3.org/2000/svg">
<path d="M9 17.25C13.5563 17.25 17.25 13.5563 17.25 9C17.25 4.44365 13.5563 0.75 9 0.75C4.44365 0.75 0.75 4.44365 0.75 9C0.75 13.5563 4.44365 17.25 9 17.25Z" fill="#41BAF7"/>
<path d="M11.6203 6.56883C11.8787 6.31039 12.2977 6.31039 12.5562 6.56883C12.8146 6.82726 12.8146 7.24627 12.5562 7.5047L8.58559 11.4753C8.32715 11.7337 7.90814 11.7337 7.64971 11.4753L5.44383 9.26941C5.18539 9.01097 5.18539 8.59197 5.44383 8.33353C5.70226 8.0751 6.12127 8.0751 6.3797 8.33353L8.11765 10.0715L11.6203 6.56883Z" fill="white"/>
</svg>
