<svg width="14" height="17" viewBox="0 0 14 17" fill="none" xmlns="http://www.w3.org/2000/svg">
<path fill-rule="evenodd" clip-rule="evenodd" d="M1.16699 7.66669C1.16699 6.56212 2.06242 5.66669 3.16699 5.66669H6.75032C7.85489 5.66669 8.75032 6.56212 8.75032 7.66669V11.4584C8.75032 12.5629 7.85489 13.4584 6.75032 13.4584H3.16699C2.06242 13.4584 1.16699 12.5629 1.16699 11.4584V7.66669ZM3.04199 9.56252C3.04199 9.14831 3.37778 8.81252 3.79199 8.81252H4.20866V8.14585C4.20866 7.73164 4.54444 7.39585 4.95866 7.39585C5.37287 7.39585 5.70866 7.73164 5.70866 8.14585V8.81252H6.12533C6.53954 8.81252 6.87533 9.14831 6.87533 9.56252C6.87533 9.97673 6.53954 10.3125 6.12533 10.3125H5.70866V10.9792C5.70866 11.3934 5.37287 11.7292 4.95866 11.7292C4.54445 11.7292 4.20866 11.3934 4.20866 10.9792V10.3125H3.79199C3.37778 10.3125 3.04199 9.97673 3.04199 9.56252Z" fill="#1D9DDD"/>
<path d="M9.33398 8.91716C9.33398 8.21837 9.69871 7.57025 10.296 7.20759L11.1462 6.6914C11.8867 6.24182 12.834 6.7749 12.834 7.64116V11.4839C12.834 12.3501 11.8867 12.8832 11.1462 12.4336L10.296 11.9175C9.69871 11.5548 9.33398 10.9067 9.33398 10.2079V8.91716Z" fill="#1D9DDD"/>
<path d="M4.08398 3.54169H5.91732C6.83779 3.54169 7.58398 4.28788 7.58398 5.20835V5.66669" stroke="#1D9DDD" stroke-width="1.5" stroke-linecap="round"/>
</svg>
