<svg width="24" height="24" viewBox="0 0 24 24" fill="none" xmlns="http://www.w3.org/2000/svg">
<path fill-rule="evenodd" clip-rule="evenodd" d="M6 2.6532C3.79086 2.6532 2 4.44406 2 6.6532V18.7571V20.0945C2 21.1352 3.1974 21.7202 4.01831 21.0805L6.6612 19.0211C6.88077 18.85 7.15116 18.7571 7.42951 18.7571H18C20.2091 18.7571 22 16.9662 22 14.7571V6.6532C22 4.44406 20.2091 2.6532 18 2.6532H6ZM8 11.6532C8.55228 11.6532 9 11.2055 9 10.6532C9 10.1009 8.55228 9.6532 8 9.6532C7.44772 9.6532 7 10.1009 7 10.6532C7 11.2055 7.44772 11.6532 8 11.6532ZM13 10.6532C13 11.2055 12.5523 11.6532 12 11.6532C11.4477 11.6532 11 11.2055 11 10.6532C11 10.1009 11.4477 9.6532 12 9.6532C12.5523 9.6532 13 10.1009 13 10.6532ZM16 11.6532C16.5523 11.6532 17 11.2055 17 10.6532C17 10.1009 16.5523 9.6532 16 9.6532C15.4477 9.6532 15 10.1009 15 10.6532C15 11.2055 15.4477 11.6532 16 11.6532Z" fill="white"/>
</svg>
