<svg width="22" height="22" viewBox="0 0 22 22" fill="none" xmlns="http://www.w3.org/2000/svg">
<path d="M11 21C16.5228 21 21 16.5228 21 11C21 5.47715 16.5228 1 11 1C5.47715 1 1 5.47715 1 11C1 16.5228 5.47715 21 11 21Z" stroke="white" stroke-width="1.4"/>
<path d="M7.01674 14.2512L8.66785 9.05319C8.72058 8.87578 8.85742 8.73567 9.03372 8.67855L14.2497 7.03017C14.3952 6.98055 14.5547 6.99251 14.6911 7.06327C14.8276 7.13403 14.9291 7.25743 14.9721 7.4048C15.0093 7.51732 15.0093 7.63881 14.9721 7.75134L13.3397 12.9494C13.2837 13.1281 13.1435 13.2681 12.9645 13.324L7.74848 14.9724C7.60294 15.0193 7.44465 15.0061 7.30894 14.9357C7.17323 14.8653 7.07138 14.7436 7.02612 14.5978C6.99482 14.4847 6.9916 14.3658 7.01674 14.2512Z" fill="white"/>
</svg>
