<svg width="24" height="24" viewBox="0 0 24 24" fill="none" xmlns="http://www.w3.org/2000/svg">
<path fill-rule="evenodd" clip-rule="evenodd" d="M6.50781 2.17188C4.29867 2.17188 2.50781 3.96274 2.50781 6.17188V17.5136C2.50781 19.7227 4.29867 21.5136 6.50781 21.5136H15.0001C17.2093 21.5136 19.0001 19.7228 19.0001 17.5136V8.62283C19.0001 8.36209 18.8983 8.11166 18.7163 7.92492L13.4044 2.47396C13.2162 2.28081 12.9579 2.17188 12.6882 2.17188H6.50781ZM12.8282 4.92481C12.7655 4.86102 12.6569 4.90546 12.6569 4.99494V7.61906C12.6569 8.17134 13.1047 8.61906 13.6569 8.61906H16.2242C16.3129 8.61906 16.3577 8.51215 16.2955 8.44893L12.8282 4.92481Z" fill="white"/>
</svg>
