<svg width="10" height="10" viewBox="0 0 10 10" fill="none" xmlns="http://www.w3.org/2000/svg">
<g id="Icontyl Plus/Light/Bold/Pen Edit">
<g id="Icon">
<path id="Rectangle 173" d="M6.30442 1.63967C6.62305 1.32104 7.13964 1.32104 7.45827 1.63967L8.03519 2.21659C8.35382 2.53522 8.35382 3.05181 8.03519 3.37044C7.87588 3.52975 7.61758 3.52975 7.45827 3.37044L6.30442 2.21659C6.14511 2.05728 6.14511 1.79898 6.30442 1.63967Z" fill="white"/>
<path id="Rectangle 174" d="M4.95756 2.89498C5.3882 2.46434 6.08641 2.46434 6.51705 2.89498L6.68833 3.06626C7.11897 3.4969 7.11897 4.19511 6.68833 4.62575L3.79605 7.51803C3.75298 7.5611 3.68316 7.5611 3.6401 7.51803L2.06528 5.94321C2.02221 5.90015 2.02221 5.83033 2.06528 5.78726L4.95756 2.89498Z" fill="white"/>
<path id="Rectangle 175" d="M1.66754 6.37214C1.68039 6.28218 1.79043 6.2455 1.85468 6.30976L3.27355 7.72863C3.33781 7.79288 3.30113 7.90292 3.21117 7.91577L2.8658 7.96511C2.13803 8.06907 1.51423 7.44528 1.6182 6.71751L1.66754 6.37214Z" fill="white"/>
<path id="Vector 494" d="M2.0835 8.75H8.05661" stroke="white" stroke-width="1.5" stroke-linecap="round"/>
</g>
</g>
</svg>
