<svg width="20" height="20" viewBox="0 0 20 20" fill="none" xmlns="http://www.w3.org/2000/svg">
<path d="M19.4083 17.7528L14.9979 13.3423C16.0597 11.9287 16.6329 10.2081 16.631 8.44012C16.631 3.92418 12.9569 0.250122 8.44098 0.250122C3.92504 0.250122 0.250977 3.92418 0.250977 8.44012C0.250977 12.9561 3.92504 16.6301 8.44098 16.6301C10.209 16.6321 11.9296 16.0588 13.3432 14.997L17.7536 19.4075C17.9769 19.607 18.2681 19.7136 18.5674 19.7052C18.8668 19.6968 19.1515 19.5742 19.3633 19.3624C19.575 19.1507 19.6977 18.8659 19.706 18.5666C19.7144 18.2672 19.6079 17.976 19.4083 17.7528V17.7528ZM2.59098 8.44012C2.59098 7.2831 2.93407 6.15206 3.57688 5.19004C4.21969 4.22801 5.13333 3.4782 6.20228 3.03543C7.27123 2.59265 8.44747 2.4768 9.58226 2.70253C10.717 2.92825 11.7594 3.48541 12.5776 4.30355C13.3957 5.12168 13.9528 6.16405 14.1786 7.29884C14.4043 8.43363 14.2884 9.60987 13.8457 10.6788C13.4029 11.7478 12.6531 12.6614 11.6911 13.3042C10.729 13.947 9.598 14.2901 8.44098 14.2901C6.89003 14.2883 5.40314 13.6713 4.30646 12.5746C3.20977 11.478 2.59284 9.99107 2.59098 8.44012V8.44012Z" fill="#828282"/>
</svg>
