<svg width="20" height="20" viewBox="0 0 20 20" fill="none" xmlns="http://www.w3.org/2000/svg">
<path d="M18.4783 11.7155C17.532 11.1677 17.2044 9.98617 17.7391 9.04885C17.9146 8.74622 18.1698 8.49462 18.4783 8.31997C18.9473 8.05766 19.2898 7.62434 19.4302 7.11569C19.5706 6.60703 19.4974 6.06486 19.2267 5.60887L18.5605 4.44443C18.2912 3.98767 17.8463 3.65409 17.324 3.51733C16.8018 3.38058 16.2451 3.4519 15.777 3.71554C15.3074 3.9796 14.7494 4.05115 14.2256 3.91446C13.7019 3.77776 13.2554 3.44402 12.9843 2.98665C12.8069 2.68317 12.7126 2.34033 12.7105 1.9911C12.7129 1.46385 12.4996 0.957378 12.1177 0.583716C11.7357 0.210054 11.2167 -5.30136e-06 10.6753 0L9.33378 0C8.2083 -1.09235e-05 7.29451 0.886031 7.28948 1.98221C7.29331 2.69316 6.90592 3.35165 6.27424 3.70794C5.64257 4.06422 4.86337 4.06373 4.23217 3.70665C3.75968 3.43228 3.19328 3.35589 2.66202 3.49487C2.13075 3.63386 1.67989 3.97639 1.41214 4.44443L0.773298 5.56442C0.214928 6.51481 0.549254 7.72598 1.52166 8.27552C2.49621 8.82836 2.82699 10.0455 2.26089 10.9955C2.08774 11.2976 1.83181 11.5469 1.52166 11.7155C1.05269 11.9778 0.710204 12.4111 0.569796 12.9198C0.429389 13.4284 0.502611 13.9706 0.773298 14.4266L1.41214 15.5644C1.97975 16.5136 3.22936 16.8358 4.20479 16.2844C5.18125 15.7457 6.42084 16.0703 6.98832 17.0133C7.16892 17.3155 7.26344 17.6591 7.26211 18.0088C7.26208 18.54 7.47997 19.0491 7.8673 19.4231C8.25464 19.797 8.77932 20.0047 9.32465 19.9999H10.6662C11.7953 19.9999 12.7105 19.1085 12.7105 18.0088C12.7032 17.4785 12.9144 16.9674 13.2968 16.5899C13.6793 16.2124 14.2011 15.9999 14.7457 15.9999C15.1048 15.9978 15.4579 16.0899 15.7678 16.2666C16.7436 16.8104 17.9871 16.4848 18.5514 15.5377L19.2267 14.3999C19.7719 13.4562 19.4387 12.261 18.4783 11.7155Z" fill="#F4F3FC"/>
<path d="M10 12.5C11.3807 12.5 12.5 11.3807 12.5 10C12.5 8.61929 11.3807 7.5 10 7.5C8.61929 7.5 7.5 8.61929 7.5 10C7.5 11.3807 8.61929 12.5 10 12.5Z" fill="#141D51"/>
</svg>
