<svg width="38" height="38" viewBox="0 0 38 38" fill="none" xmlns="http://www.w3.org/2000/svg">
<path d="M37.75 34.625V3.375C37.75 2.5462 37.4208 1.75134 36.8347 1.16529C36.2487 0.57924 35.4538 0.25 34.625 0.25H3.375C2.5462 0.25 1.75134 0.57924 1.16529 1.16529C0.57924 1.75134 0.25 2.5462 0.25 3.375V34.625C0.25 35.4538 0.57924 36.2487 1.16529 36.8347C1.75134 37.4208 2.5462 37.75 3.375 37.75H34.625C35.4538 37.75 36.2487 37.4208 36.8347 36.8347C37.4208 36.2487 37.75 35.4538 37.75 34.625ZM26.7344 18.9219C26.4415 19.2141 26.0446 19.3782 25.6309 19.3782C25.2171 19.3782 24.8203 19.2141 24.5273 18.9219L20.5625 14.957V26.8125C20.5625 27.2269 20.3979 27.6243 20.1049 27.9174C19.8118 28.2104 19.4144 28.375 19 28.375C18.5856 28.375 18.1882 28.2104 17.8951 27.9174C17.6021 27.6243 17.4375 27.2269 17.4375 26.8125V14.957L13.4727 18.9219C13.1754 19.1912 12.786 19.3359 12.3851 19.326C11.9841 19.3161 11.6023 19.1525 11.3187 18.8688C11.035 18.5852 10.8714 18.2034 10.8615 17.8024C10.8516 17.4015 10.9963 17.0121 11.2656 16.7148L17.8867 10.0937C18.0331 9.94652 18.2052 9.82737 18.3945 9.74219C18.5873 9.66565 18.7926 9.6259 19 9.625C19.2012 9.62448 19.4004 9.66433 19.5859 9.74219C19.7839 9.82212 19.9634 9.94177 20.1133 10.0937L26.7344 16.7148C27.0266 17.0078 27.1907 17.4046 27.1907 17.8184C27.1907 18.2321 27.0266 18.629 26.7344 18.9219V18.9219Z" fill="#1D9DDD"/>
</svg>
