<svg width="24" height="24" viewBox="0 0 24 24" fill="none" xmlns="http://www.w3.org/2000/svg">
<path d="M7.0035 12.9982C7.0035 13.5509 7.45144 13.9982 8.00399 13.9982C8.55654 13.9982 9.00441 13.5509 9.00441 12.9982V6.17198L11.5412 8.70714C11.6102 8.7755 11.6863 8.83214 11.7666 8.87706C12.1463 9.08605 12.6337 9.02941 12.956 8.70714C13.1419 8.52159 13.2392 8.28136 13.248 8.03722C13.2586 7.76964 13.1605 7.49816 12.956 7.29308L8.71144 3.05284C8.64241 2.98253 8.56563 2.92589 8.48397 2.88097C8.40535 2.838 8.32222 2.80675 8.23702 2.78526C7.91085 2.70909 7.55184 2.79698 7.29659 3.05284L3.05202 7.29308C2.8163 7.52941 2.72261 7.85167 2.77126 8.15831C2.8033 8.35948 2.89681 8.55284 3.05202 8.70714C3.21779 8.87316 3.42849 8.96886 3.64479 8.9923C3.79763 9.00987 3.95382 8.9923 4.10018 8.93956C4.23403 8.89269 4.35958 8.81456 4.46682 8.70714L7.0035 6.17198V12.9982Z" fill="white"/>
<path d="M15.2005 10.3946C15.383 10.1544 15.6726 9.99816 15.9988 9.99816C16.5511 9.99816 16.9988 10.4454 16.9988 10.9982V17.8263L19.5344 15.2911C19.6034 15.2228 19.6794 15.1661 19.7597 15.1212C20.1392 14.9122 20.6264 14.9689 20.9486 15.2911C21.1344 15.4767 21.2316 15.7169 21.2404 15.961C21.2511 16.2286 21.153 16.5001 20.9486 16.7052L16.706 20.9474C16.6369 21.0177 16.5602 21.0743 16.4785 21.1192C16.4 21.1622 16.3169 21.1935 16.2317 21.215C15.9057 21.2911 15.5468 21.2032 15.2917 20.9474L11.0491 16.7052C10.8135 16.4689 10.7199 16.1466 10.7685 15.84C10.8005 15.6388 10.894 15.4454 11.0491 15.2911C11.2148 15.1251 11.4254 15.0294 11.6416 15.006C11.7944 14.9884 11.9505 15.006 12.0968 15.0587C12.2305 15.1056 12.3561 15.1837 12.4633 15.2911L14.9988 17.8263V10.9982C14.9988 10.7716 15.0739 10.5626 15.2005 10.3946Z" fill="white"/>
</svg>
