<svg width="24" height="24" viewBox="0 0 24 24" fill="none" xmlns="http://www.w3.org/2000/svg">
<path d="M2.5 11C2.5 9.34315 3.84315 8 5.5 8H18.5C20.1569 8 21.5 9.34315 21.5 11V19C21.5 20.6569 20.1569 22 18.5 22H5.5C3.84315 22 2.5 20.6569 2.5 19V11Z" fill="white"/>
<path d="M16.2529 4.43484V7.73617C16.2529 8.28845 15.8052 8.73617 15.2529 8.73617H6.37871C4.91256 8.73617 3.65793 9.78859 3.40287 11.2324C3.38682 11.3233 3.25293 11.3115 3.25293 11.2193V9.87395C3.25293 8.61626 4.03742 7.49208 5.21788 7.05816L14.9079 3.49624C15.5607 3.2563 16.2529 3.73939 16.2529 4.43484Z" stroke="white" stroke-width="1.5" stroke-linecap="round"/>
</svg>
